<svg xmlns="http://www.w3.org/2000/svg" viewBox="0 0 1080 560" width="1080" height="560"><defs>
<radialGradient id="vig" cx="50%" cy="42%" r="70%"><stop offset="55%" stop-color="#F7F7F7" stop-opacity="0"/><stop offset="100%" stop-color="#4D5252" stop-opacity="0.10"/></radialGradient>
<radialGradient id="glow"><stop offset="0%" stop-color="#F4B728" stop-opacity="0.75"/><stop offset="45%" stop-color="#F4B728" stop-opacity="0.22"/><stop offset="100%" stop-color="#F4B728" stop-opacity="0"/></radialGradient>
<radialGradient id="glowc"><stop offset="0%" stop-color="#A83861" stop-opacity="0.6"/><stop offset="100%" stop-color="#A83861" stop-opacity="0"/></radialGradient>
<linearGradient id="sky" x1="0" y1="0" x2="0" y2="1"><stop offset="0" stop-color="#FFFFFF"/><stop offset="1" stop-color="#F7F7F7"/></linearGradient>
<linearGradient id="goldg" x1="0" y1="0" x2="1" y2="1"><stop offset="0" stop-color="#FFF1C4"/><stop offset=".45" stop-color="#F4B728"/><stop offset="1" stop-color="#C98A10"/></linearGradient>
<clipPath id="cv"><rect width="1080" height="560"/></clipPath></defs><g clip-path="url(#cv)"><rect width="1080" height="560" fill="url(#sky)"/><clipPath id="t1"><rect width="1080" height="560" /></clipPath><g clip-path="url(#t1)" opacity="0.15"><path d="M1044 247h.1M38 388h.1M828 133h.1M673 345h.1M99 400h.1M543 493h.1M288 367h.1M490 297h.1M177 312h.1M29 194h.1M871 99h.1M940 333h.1M319 69h.1M76 221h.1M966 450h.1M72 144h.1M744 532h.1M455 533h.1M510 78h.1M75 182h.1M722 34h.1M819 83h.1M344 324h.1M200 352h.1M1047 266h.1M78 388h.1M636 307h.1M278 77h.1M426 372h.1M358 316h.1M1025 136h.1M824 378h.1M652 40h.1M1055 17h.1M261 551h.1M448 42h.1M617 207h.1M1071 95h.1M383 307h.1M751 112h.1M342 480h.1M169 516h.1M740 276h.1M900 88h.1M976 88h.1M26 226h.1M776 402h.1M771 272h.1M181 444h.1M296 548h.1M217 293h.1M524 263h.1M22 391h.1M998 253h.1M423 536h.1M398 96h.1M868 287h.1M137 378h.1M788 10h.1M815 495h.1M920 274h.1M801 292h.1M1031 333h.1M798 280h.1M669 487h.1M97 390h.1M520 475h.1M680 241h.1M422 49h.1M383 53h.1M467 280h.1M666 139h.1M851 394h.1M682 187h.1M852 542h.1M183 318h.1M549 524h.1M992 467h.1M820 252h.1M325 119h.1M444 347h.1M582 434h.1M1037 54h.1M1051 481h.1M105 551h.1M23 436h.1M685 251h.1M180 178h.1M355 202h.1M686 291h.1M949 23h.1M547 427h.1M513 357h.1M982 451h.1M204 80h.1M365 518h.1M100 499h.1M218 361h.1M351 59h.1M96 324h.1M839 531h.1M267 117h.1M504 23h.1M869 534h.1M1050 43h.1M79 538h.1M584 58h.1M418 137h.1M874 106h.1M267 69h.1M822 155h.1M357 97h.1M332 338h.1M1038 53h.1M73 402h.1M630 205h.1M565 545h.1M957 389h.1M384 1h.1" stroke="#4D5252" stroke-width="2.4" stroke-linecap="round"/><path d="M70 303h.1M68 169h.1M1017 40h.1M155 265h.1M180 43h.1M1033 79h.1M324 475h.1M44 216h.1M536 326h.1M514 438h.1M475 437h.1M111 471h.1M875 88h.1M1078 171h.1M428 395h.1M541 458h.1M43 219h.1M224 461h.1M1011 513h.1M580 516h.1M906 52h.1M299 64h.1M430 196h.1M251 275h.1M333 41h.1M322 471h.1M31 446h.1M714 58h.1M959 501h.1M1059 422h.1M323 384h.1M210 456h.1M367 187h.1M1052 373h.1M980 473h.1M835 478h.1M578 336h.1M44 38h.1M744 213h.1M895 239h.1M933 200h.1M1048 378h.1M505 335h.1M311 229h.1M253 5h.1M348 203h.1M769 360h.1M1045 304h.1M879 229h.1M815 329h.1M137 439h.1M105 312h.1M258 391h.1M1003 179h.1M992 60h.1M969 97h.1M281 181h.1M623 381h.1M659 340h.1M542 188h.1M875 244h.1M622 305h.1M678 116h.1M882 463h.1M748 466h.1M1042 291h.1M870 382h.1M195 82h.1M191 77h.1M101 303h.1M649 150h.1M929 264h.1M478 422h.1M370 380h.1M734 290h.1M18 491h.1M255 427h.1M427 117h.1M373 34h.1M964 136h.1M984 467h.1M459 243h.1M650 369h.1M1022 294h.1M115 505h.1M205 290h.1M815 459h.1M832 524h.1M18 47h.1M376 187h.1M389 10h.1M622 171h.1M716 556h.1M492 146h.1M547 110h.1M205 462h.1M704 379h.1M342 518h.1M449 524h.1M435 204h.1M320 461h.1M256 171h.1M444 341h.1M241 311h.1M271 226h.1M204 547h.1M1020 322h.1M979 237h.1M339 115h.1M681 225h.1M472 424h.1M767 76h.1M290 544h.1M871 67h.1M68 417h.1M360 482h.1M493 303h.1M33 4h.1M940 334h.1M456 532h.1M42 351h.1M9 357h.1M793 371h.1M442 371h.1M625 516h.1M290 201h.1M1037 487h.1M443 163h.1M543 330h.1M431 223h.1M775 479h.1M212 365h.1M194 291h.1M122 375h.1M747 449h.1M945 85h.1M538 520h.1M140 318h.1M343 78h.1M870 357h.1M224 343h.1M87 221h.1M420 108h.1M494 244h.1M1036 44h.1M83 421h.1M503 319h.1M477 267h.1M798 392h.1M663 14h.1" stroke="#4D5252" stroke-width="3.2" stroke-linecap="round"/><path d="M98 528h.1M1066 9h.1M74 378h.1M625 151h.1M490 233h.1M450 431h.1M883 368h.1M207 61h.1M1050 475h.1M349 441h.1M547 49h.1M1006 115h.1M326 455h.1M165 508h.1M674 518h.1M300 224h.1M296 167h.1M304 207h.1M374 95h.1M494 374h.1M608 533h.1M495 48h.1M557 243h.1M282 272h.1M237 282h.1M983 10h.1M516 384h.1M1026 78h.1M672 38h.1M987 422h.1M139 560h.1M673 111h.1M160 379h.1M229 110h.1M670 409h.1M703 28h.1M630 149h.1M648 484h.1M258 248h.1M188 530h.1M555 406h.1M403 57h.1M571 225h.1M424 164h.1M654 378h.1M93 111h.1M171 371h.1M108 31h.1M1058 521h.1M1050 5h.1M642 159h.1M872 15h.1M892 457h.1M953 359h.1M456 236h.1M630 140h.1M833 437h.1M925 341h.1M444 269h.1M189 90h.1M757 365h.1M900 411h.1M968 551h.1M704 290h.1M689 530h.1M696 538h.1M69 338h.1M952 198h.1M659 60h.1M482 309h.1M45 281h.1M624 348h.1M619 189h.1M370 119h.1M602 193h.1M144 201h.1M136 35h.1M171 346h.1M663 335h.1M852 421h.1M207 93h.1M248 237h.1M410 373h.1M281 200h.1M167 354h.1M936 508h.1M701 31h.1M729 144h.1M67 318h.1M963 69h.1M875 403h.1M565 481h.1M747 27h.1M403 163h.1M509 485h.1M146 212h.1M1063 294h.1M330 529h.1M43 192h.1M7 478h.1M240 363h.1M600 499h.1M68 209h.1M0 461h.1M579 123h.1M275 167h.1M805 119h.1M216 153h.1M972 297h.1M792 560h.1M956 132h.1M62 500h.1M552 203h.1M684 455h.1M353 539h.1M309 62h.1M517 181h.1M760 110h.1M951 428h.1M1035 204h.1M956 270h.1M314 431h.1M370 54h.1M561 286h.1M1051 139h.1M90 436h.1M219 368h.1M420 409h.1M257 426h.1M953 276h.1M121 294h.1M915 92h.1M148 541h.1M276 54h.1" stroke="#4D5252" stroke-width="4.2" stroke-linecap="round"/></g><circle cx="540" cy="250" r="230" fill="url(#glow)" opacity=".7"/><circle cx="540" cy="250" r="118" fill="url(#goldg)" stroke="#2E3232" stroke-width="4"/><circle cx="540" cy="250" r="88" fill="none" stroke="#C98A10" stroke-width="3"/><path d="M462 238a80 80 0 0 1 50 -62" fill="none" stroke="#FFF1C4" stroke-width="5" stroke-linecap="round"/><polygon points="0,360 0,347 60,329 120,320 180,320 240,315 300,314 360,323 420,330 480,343 540,362 600,364 660,379 720,373 780,373 840,361 900,355 960,344 1020,328 1080,318 1080,560 0,560" fill="#D4D4D4" stroke="#2E3232" stroke-width="3"/><clipPath id="t2"><polygon points="0,360 0,347 60,329 120,320 180,320 240,315 300,314 360,323 420,330 480,343 540,362 600,364 660,379 720,373 780,373 840,361 900,355 960,344 1020,328 1080,318 1080,560 0,560" /></clipPath><g clip-path="url(#t2)" opacity="0.22"><path d="M820 367h.1M420 346h.1M265 375h.1M775 457h.1M387 356h.1M1016 525h.1M1062 322h.1M953 459h.1M1016 484h.1M930 338h.1M954 545h.1M459 508h.1M957 419h.1M868 385h.1M780 525h.1M951 549h.1M691 356h.1M412 474h.1M189 412h.1M744 557h.1M428 458h.1M106 455h.1M108 325h.1M530 474h.1M764 506h.1M996 476h.1M599 496h.1M584 438h.1M1051 550h.1M604 470h.1M486 437h.1M970 541h.1M955 450h.1M537 421h.1M463 388h.1M673 509h.1M211 323h.1M843 387h.1M553 505h.1M316 506h.1M691 516h.1M201 401h.1M776 526h.1M841 479h.1M0 460h.1M692 469h.1M73 379h.1M1078 438h.1M882 330h.1M501 439h.1M76 502h.1M323 550h.1M693 545h.1M368 481h.1M219 455h.1M616 515h.1M976 464h.1M132 422h.1M565 441h.1M320 316h.1M397 554h.1M602 407h.1M265 439h.1M252 341h.1M335 452h.1M759 356h.1M398 395h.1M129 381h.1M23 373h.1M691 430h.1M342 504h.1M155 506h.1M475 446h.1M341 426h.1M437 363h.1M734 513h.1M688 484h.1M478 390h.1M522 374h.1M407 547h.1M587 400h.1M1063 506h.1M348 516h.1M960 414h.1M605 554h.1M752 319h.1M469 474h.1M563 416h.1M84 337h.1M414 420h.1M804 528h.1M689 493h.1" stroke="#4D5252" stroke-width="2.4" stroke-linecap="round"/><path d="M899 403h.1M297 468h.1M504 489h.1M625 521h.1M637 421h.1M604 402h.1M100 529h.1M566 540h.1M1052 410h.1M649 477h.1M1023 388h.1M402 338h.1M410 401h.1M783 471h.1M333 460h.1M399 412h.1M345 359h.1M855 379h.1M559 456h.1M543 499h.1M438 549h.1M532 470h.1M50 553h.1M345 387h.1M213 465h.1M226 346h.1M923 387h.1M277 454h.1M887 351h.1M271 447h.1M237 549h.1M286 329h.1M521 407h.1M903 329h.1M177 489h.1M988 364h.1M883 558h.1M447 442h.1M1065 436h.1M693 337h.1M472 417h.1M274 526h.1M329 506h.1M21 380h.1M150 526h.1M116 510h.1M689 416h.1M975 519h.1M791 332h.1M872 345h.1M402 366h.1M709 324h.1M102 370h.1M312 511h.1M865 547h.1M698 362h.1M630 335h.1M164 454h.1M718 491h.1M699 525h.1M18 538h.1M376 348h.1M316 550h.1M58 455h.1M266 427h.1M1058 364h.1M570 447h.1M601 426h.1M628 548h.1M454 554h.1M81 559h.1M488 442h.1M358 386h.1M825 408h.1M928 524h.1M1013 448h.1M574 355h.1M525 365h.1M193 368h.1M189 509h.1M82 449h.1M542 483h.1M295 513h.1M596 459h.1M123 501h.1M941 535h.1M157 511h.1" stroke="#4D5252" stroke-width="3.2" stroke-linecap="round"/><path d="M49 351h.1M337 397h.1M658 338h.1M1070 483h.1M1000 445h.1M268 343h.1M402 389h.1M101 492h.1M310 471h.1M1024 324h.1M244 532h.1M735 378h.1M463 322h.1M585 403h.1M371 460h.1M32 386h.1M139 413h.1M447 486h.1M879 516h.1M914 486h.1M1028 382h.1M856 475h.1M237 412h.1M670 460h.1M45 427h.1M79 377h.1M472 321h.1M717 373h.1M822 441h.1M149 320h.1M598 325h.1M838 463h.1M97 525h.1M45 408h.1M375 437h.1M1057 544h.1M839 508h.1M837 449h.1M170 348h.1M726 398h.1M168 419h.1M864 524h.1M1003 443h.1M1064 509h.1M662 341h.1M114 456h.1M729 507h.1M273 478h.1M314 523h.1M661 339h.1M698 503h.1M115 322h.1M484 387h.1M692 525h.1M508 326h.1M361 452h.1M705 474h.1M20 426h.1M910 346h.1M440 363h.1M768 431h.1M1074 366h.1M161 382h.1M831 543h.1M928 512h.1M681 479h.1M348 345h.1M841 369h.1M54 536h.1M297 382h.1M907 515h.1M1033 498h.1M764 535h.1M739 387h.1M467 384h.1M937 500h.1M643 558h.1M380 538h.1M446 538h.1M856 508h.1M404 497h.1M867 471h.1M638 548h.1M52 445h.1M147 338h.1M850 552h.1" stroke="#4D5252" stroke-width="4.2" stroke-linecap="round"/></g><path d="M0 430Q540 380 1080 430V560H0Z" fill="#E1E1E1" stroke="#2E3232" stroke-width="4"/><clipPath id="t3"><path d="M0 470Q540 430 1080 470V560H0Z" /></clipPath><g clip-path="url(#t3)" opacity=".35"><path d="M-128 440L-8 560M-120 440L0 560M-112 440L8 560M-104 440L16 560M-96 440L24 560M-88 440L32 560M-80 440L40 560M-72 440L48 560M-64 440L56 560M-56 440L64 560M-48 440L72 560M-40 440L80 560M-32 440L88 560M-24 440L96 560M-16 440L104 560M-8 440L112 560M0 440L120 560M8 440L128 560M16 440L136 560M24 440L144 560M32 440L152 560M40 440L160 560M48 440L168 560M56 440L176 560M64 440L184 560M72 440L192 560M80 440L200 560M88 440L208 560M96 440L216 560M104 440L224 560M112 440L232 560M120 440L240 560M128 440L248 560M136 440L256 560M144 440L264 560M152 440L272 560M160 440L280 560M168 440L288 560M176 440L296 560M184 440L304 560M192 440L312 560M200 440L320 560M208 440L328 560M216 440L336 560M224 440L344 560M232 440L352 560M240 440L360 560M248 440L368 560M256 440L376 560M264 440L384 560M272 440L392 560M280 440L400 560M288 440L408 560M296 440L416 560M304 440L424 560M312 440L432 560M320 440L440 560M328 440L448 560M336 440L456 560M344 440L464 560M352 440L472 560M360 440L480 560M368 440L488 560M376 440L496 560M384 440L504 560M392 440L512 560M400 440L520 560M408 440L528 560M416 440L536 560M424 440L544 560M432 440L552 560M440 440L560 560M448 440L568 560M456 440L576 560M464 440L584 560M472 440L592 560M480 440L600 560M488 440L608 560M496 440L616 560M504 440L624 560M512 440L632 560M520 440L640 560M528 440L648 560M536 440L656 560M544 440L664 560M552 440L672 560M560 440L680 560M568 440L688 560M576 440L696 560M584 440L704 560M592 440L712 560M600 440L720 560M608 440L728 560M616 440L736 560M624 440L744 560M632 440L752 560M640 440L760 560M648 440L768 560M656 440L776 560M664 440L784 560M672 440L792 560M680 440L800 560M688 440L808 560M696 440L816 560M704 440L824 560M712 440L832 560M720 440L840 560M728 440L848 560M736 440L856 560M744 440L864 560M752 440L872 560M760 440L880 560M768 440L888 560M776 440L896 560M784 440L904 560M792 440L912 560M800 440L920 560M808 440L928 560M816 440L936 560M824 440L944 560M832 440L952 560M840 440L960 560M848 440L968 560M856 440L976 560M864 440L984 560M872 440L992 560M880 440L1000 560M888 440L1008 560M896 440L1016 560M904 440L1024 560M912 440L1032 560M920 440L1040 560M928 440L1048 560M936 440L1056 560M944 440L1064 560M952 440L1072 560M960 440L1080 560M968 440L1088 560M976 440L1096 560M984 440L1104 560M992 440L1112 560M1000 440L1120 560M1008 440L1128 560M1016 440L1136 560M1024 440L1144 560M1032 440L1152 560M1040 440L1160 560M1048 440L1168 560M1056 440L1176 560M1064 440L1184 560M1072 440L1192 560M1080 440L1200 560M1088 440L1208 560M1096 440L1216 560M1104 440L1224 560M1112 440L1232 560M1120 440L1240 560M1128 440L1248 560M1136 440L1256 560M1144 440L1264 560M1152 440L1272 560M1160 440L1280 560M1168 440L1288 560M1176 440L1296 560M1184 440L1304 560M1192 440L1312 560M1200 440L1320 560" stroke="#4D5252" stroke-width="1.6"/></g><path d="M975 490l-4 -12M980 490l2 -14" stroke="#2E3232" stroke-width="2" opacity=".6"/><path d="M308 469l-4 -12M313 469l2 -14" stroke="#2E3232" stroke-width="2" opacity=".6"/><path d="M310 506l-4 -12M315 506l2 -14" stroke="#2E3232" stroke-width="2" opacity=".6"/><path d="M798 534l-4 -12M803 534l2 -14" stroke="#2E3232" stroke-width="2" opacity=".6"/><path d="M31 525l-4 -12M36 525l2 -14" stroke="#2E3232" stroke-width="2" opacity=".6"/><path d="M131 460l-4 -12M136 460l2 -14" stroke="#2E3232" stroke-width="2" opacity=".6"/><path d="M87 478l-4 -12M92 478l2 -14" stroke="#2E3232" stroke-width="2" opacity=".6"/><path d="M63 545l-4 -12M68 545l2 -14" stroke="#2E3232" stroke-width="2" opacity=".6"/><path d="M551 500l-4 -12M556 500l2 -14" stroke="#2E3232" stroke-width="2" opacity=".6"/><path d="M793 531l-4 -12M798 531l2 -14" stroke="#2E3232" stroke-width="2" opacity=".6"/><path d="M874 490l-4 -12M879 490l2 -14" stroke="#2E3232" stroke-width="2" opacity=".6"/><path d="M910 457l-4 -12M915 457l2 -14" stroke="#2E3232" stroke-width="2" opacity=".6"/><path d="M748 452l-4 -12M753 452l2 -14" stroke="#2E3232" stroke-width="2" opacity=".6"/><path d="M73 457l-4 -12M78 457l2 -14" stroke="#2E3232" stroke-width="2" opacity=".6"/><path d="M1013 467l-4 -12M1018 467l2 -14" stroke="#2E3232" stroke-width="2" opacity=".6"/><path d="M528 526l-4 -12M533 526l2 -14" stroke="#2E3232" stroke-width="2" opacity=".6"/><path d="M893 539l-4 -12M898 539l2 -14" stroke="#2E3232" stroke-width="2" opacity=".6"/><path d="M616 493l-4 -12M621 493l2 -14" stroke="#2E3232" stroke-width="2" opacity=".6"/><path d="M1038 546l-4 -12M1043 546l2 -14" stroke="#2E3232" stroke-width="2" opacity=".6"/><path d="M790 513l-4 -12M795 513l2 -14" stroke="#2E3232" stroke-width="2" opacity=".6"/><path d="M718 508l-4 -12M723 508l2 -14" stroke="#2E3232" stroke-width="2" opacity=".6"/><path d="M834 514l-4 -12M839 514l2 -14" stroke="#2E3232" stroke-width="2" opacity=".6"/><path d="M475 483l-4 -12M480 483l2 -14" stroke="#2E3232" stroke-width="2" opacity=".6"/><path d="M58 549l-4 -12M63 549l2 -14" stroke="#2E3232" stroke-width="2" opacity=".6"/><path d="M572 517l-4 -12M577 517l2 -14" stroke="#2E3232" stroke-width="2" opacity=".6"/><path d="M334 529l-4 -12M339 529l2 -14" stroke="#2E3232" stroke-width="2" opacity=".6"/><path d="M668 509l-4 -12M673 509l2 -14" stroke="#2E3232" stroke-width="2" opacity=".6"/><path d="M213 531l-4 -12M218 531l2 -14" stroke="#2E3232" stroke-width="2" opacity=".6"/><path d="M432 521l-4 -12M437 521l2 -14" stroke="#2E3232" stroke-width="2" opacity=".6"/><path d="M546 476l-4 -12M551 476l2 -14" stroke="#2E3232" stroke-width="2" opacity=".6"/><path d="M254 448l-4 -12M259 448l2 -14" stroke="#2E3232" stroke-width="2" opacity=".6"/><path d="M987 549l-4 -12M992 549l2 -14" stroke="#2E3232" stroke-width="2" opacity=".6"/><path d="M990 451l-4 -12M995 451l2 -14" stroke="#2E3232" stroke-width="2" opacity=".6"/><path d="M704 542l-4 -12M709 542l2 -14" stroke="#2E3232" stroke-width="2" opacity=".6"/><path d="M136 492l-4 -12M141 492l2 -14" stroke="#2E3232" stroke-width="2" opacity=".6"/><path d="M308 442l-4 -12M313 442l2 -14" stroke="#2E3232" stroke-width="2" opacity=".6"/><path d="M601 494l-4 -12M606 494l2 -14" stroke="#2E3232" stroke-width="2" opacity=".6"/><path d="M850 455l-4 -12M855 455l2 -14" stroke="#2E3232" stroke-width="2" opacity=".6"/><path d="M90 517l-4 -12M95 517l2 -14" stroke="#2E3232" stroke-width="2" opacity=".6"/><path d="M92 488l-4 -12M97 488l2 -14" stroke="#2E3232" stroke-width="2" opacity=".6"/><polygon points="218,280 226,270 268,274 282,420 218,420" fill="#EBEBEB" stroke="#2E3232" stroke-width="4" stroke-linejoin="round"/><clipPath id="t4"><polygon points="252,276 268,274 282,420 258,420" /></clipPath><g clip-path="url(#t4)" opacity=".6"><path d="M96 420L242 274M106 420L252 274M116 420L262 274M126 420L272 274M136 420L282 274M146 420L292 274M156 420L302 274M166 420L312 274M176 420L322 274M186 420L332 274M196 420L342 274M206 420L352 274M216 420L362 274M226 420L372 274M236 420L382 274M246 420L392 274M256 420L402 274M266 420L412 274M276 420L422 274M286 420L432 274M296 420L442 274M306 420L452 274M316 420L462 274M326 420L472 274M336 420L482 274M346 420L492 274M356 420L502 274M366 420L512 274M376 420L522 274M386 420L532 274M396 420L542 274M406 420L552 274M416 420L562 274M426 420L572 274M436 420L582 274" stroke="#4D5252" stroke-width="2.2"/></g><path d="M228 288V410" stroke="#FFFFFF" stroke-width="3" opacity=".6"/><path d="M250 314l10 16l-10 16l-10 -16z" fill="none" stroke="#2E3232" stroke-width="3" opacity=".7"/><polygon points="806,280 814,270 856,274 862,420 798,420" fill="#EBEBEB" stroke="#2E3232" stroke-width="4" stroke-linejoin="round"/><clipPath id="t5"><polygon points="840,276 856,274 862,420 838,420" /></clipPath><g clip-path="url(#t5)" opacity=".6"><path d="M682 420L828 274M692 420L838 274M702 420L848 274M712 420L858 274M722 420L868 274M732 420L878 274M742 420L888 274M752 420L898 274M762 420L908 274M772 420L918 274M782 420L928 274M792 420L938 274M802 420L948 274M812 420L958 274M822 420L968 274M832 420L978 274M842 420L988 274M852 420L998 274M862 420L1008 274M872 420L1018 274M882 420L1028 274M892 420L1038 274M902 420L1048 274M912 420L1058 274M922 420L1068 274M932 420L1078 274M942 420L1088 274M952 420L1098 274M962 420L1108 274M972 420L1118 274M982 420L1128 274M992 420L1138 274M1002 420L1148 274M1012 420L1158 274" stroke="#4D5252" stroke-width="2.2"/></g><path d="M816 288V410" stroke="#FFFFFF" stroke-width="3" opacity=".6"/><path d="M830 314l10 16l-10 16l-10 -16z" fill="none" stroke="#2E3232" stroke-width="3" opacity=".7"/><polygon points="76,350 84,340 146,344 162,540 78,540" fill="#EBEBEB" stroke="#2E3232" stroke-width="4" stroke-linejoin="round"/><clipPath id="t6"><polygon points="122,346 146,344 162,540 131,540" /></clipPath><g clip-path="url(#t6)" opacity=".6"><path d="M-84 540L112 344M-74 540L122 344M-64 540L132 344M-54 540L142 344M-44 540L152 344M-34 540L162 344M-24 540L172 344M-14 540L182 344M-4 540L192 344M6 540L202 344M16 540L212 344M26 540L222 344M36 540L232 344M46 540L242 344M56 540L252 344M66 540L262 344M76 540L272 344M86 540L282 344M96 540L292 344M106 540L302 344M116 540L312 344M126 540L322 344M136 540L332 344M146 540L342 344M156 540L352 344M166 540L362 344M176 540L372 344M186 540L382 344M196 540L392 344M206 540L402 344M216 540L412 344M226 540L422 344M236 540L432 344M246 540L442 344M256 540L452 344M266 540L462 344M276 540L472 344M286 540L482 344M296 540L492 344M306 540L502 344M316 540L512 344M326 540L522 344M336 540L532 344M346 540L542 344M356 540L552 344M366 540L562 344" stroke="#4D5252" stroke-width="2.2"/></g><path d="M86 358V530" stroke="#FFFFFF" stroke-width="3" opacity=".6"/><path d="M120 404l10 16l-10 16l-10 -16z" fill="none" stroke="#2E3232" stroke-width="3" opacity=".7"/><polygon points="928,360 936,350 998,354 1002,540 918,540" fill="#EBEBEB" stroke="#2E3232" stroke-width="4" stroke-linejoin="round"/><clipPath id="t7"><polygon points="974,356 998,354 1002,540 971,540" /></clipPath><g clip-path="url(#t7)" opacity=".6"><path d="M775 540L961 354M785 540L971 354M795 540L981 354M805 540L991 354M815 540L1001 354M825 540L1011 354M835 540L1021 354M845 540L1031 354M855 540L1041 354M865 540L1051 354M875 540L1061 354M885 540L1071 354M895 540L1081 354M905 540L1091 354M915 540L1101 354M925 540L1111 354M935 540L1121 354M945 540L1131 354M955 540L1141 354M965 540L1151 354M975 540L1161 354M985 540L1171 354M995 540L1181 354M1005 540L1191 354M1015 540L1201 354M1025 540L1211 354M1035 540L1221 354M1045 540L1231 354M1055 540L1241 354M1065 540L1251 354M1075 540L1261 354M1085 540L1271 354M1095 540L1281 354M1105 540L1291 354M1115 540L1301 354M1125 540L1311 354M1135 540L1321 354M1145 540L1331 354M1155 540L1341 354M1165 540L1351 354M1175 540L1361 354M1185 540L1371 354M1195 540L1381 354" stroke="#4D5252" stroke-width="2.2"/></g><path d="M938 368V530" stroke="#FFFFFF" stroke-width="3" opacity=".6"/><path d="M960 410l10 16l-10 16l-10 -16z" fill="none" stroke="#2E3232" stroke-width="3" opacity=".7"/><polygon points="364,230 372,220 450,224 460,480 360,480" fill="#EBEBEB" stroke="#2E3232" stroke-width="4" stroke-linejoin="round"/><clipPath id="t8"><polygon points="419,226 450,224 460,480 424,480" /></clipPath><g clip-path="url(#t8)" opacity=".6"><path d="M153 480L409 224M163 480L419 224M173 480L429 224M183 480L439 224M193 480L449 224M203 480L459 224M213 480L469 224M223 480L479 224M233 480L489 224M243 480L499 224M253 480L509 224M263 480L519 224M273 480L529 224M283 480L539 224M293 480L549 224M303 480L559 224M313 480L569 224M323 480L579 224M333 480L589 224M343 480L599 224M353 480L609 224M363 480L619 224M373 480L629 224M383 480L639 224M393 480L649 224M403 480L659 224M413 480L669 224M423 480L679 224M433 480L689 224M443 480L699 224M453 480L709 224M463 480L719 224M473 480L729 224M483 480L739 224M493 480L749 224M503 480L759 224M513 480L769 224M523 480L779 224M533 480L789 224M543 480L799 224M553 480L809 224M563 480L819 224M573 480L829 224M583 480L839 224M593 480L849 224M603 480L859 224M613 480L869 224M623 480L879 224M633 480L889 224M643 480L899 224M653 480L909 224M663 480L919 224M673 480L929 224M683 480L939 224M693 480L949 224M703 480L959 224M713 480L969 224M723 480L979 224" stroke="#4D5252" stroke-width="2.2"/></g><path d="M374 238V470" stroke="#FFFFFF" stroke-width="3" opacity=".6"/><circle cx="410" cy="324" r="83" fill="url(#glow)"/><path d="M410 306l12 18l-12 18l-12 -18z" fill="#F4B728" stroke="#2E3232" stroke-width="3" stroke-linejoin="round"/><polygon points="624,230 632,220 710,224 720,480 620,480" fill="#EBEBEB" stroke="#2E3232" stroke-width="4" stroke-linejoin="round"/><clipPath id="t9"><polygon points="679,226 710,224 720,480 684,480" /></clipPath><g clip-path="url(#t9)" opacity=".6"><path d="M413 480L669 224M423 480L679 224M433 480L689 224M443 480L699 224M453 480L709 224M463 480L719 224M473 480L729 224M483 480L739 224M493 480L749 224M503 480L759 224M513 480L769 224M523 480L779 224M533 480L789 224M543 480L799 224M553 480L809 224M563 480L819 224M573 480L829 224M583 480L839 224M593 480L849 224M603 480L859 224M613 480L869 224M623 480L879 224M633 480L889 224M643 480L899 224M653 480L909 224M663 480L919 224M673 480L929 224M683 480L939 224M693 480L949 224M703 480L959 224M713 480L969 224M723 480L979 224M733 480L989 224M743 480L999 224M753 480L1009 224M763 480L1019 224M773 480L1029 224M783 480L1039 224M793 480L1049 224M803 480L1059 224M813 480L1069 224M823 480L1079 224M833 480L1089 224M843 480L1099 224M853 480L1109 224M863 480L1119 224M873 480L1129 224M883 480L1139 224M893 480L1149 224M903 480L1159 224M913 480L1169 224M923 480L1179 224M933 480L1189 224M943 480L1199 224M953 480L1209 224M963 480L1219 224M973 480L1229 224M983 480L1239 224" stroke="#4D5252" stroke-width="2.2"/></g><path d="M634 238V470" stroke="#FFFFFF" stroke-width="3" opacity=".6"/><circle cx="670" cy="324" r="83" fill="url(#glow)"/><path d="M670 306l12 18l-12 18l-12 -18z" fill="#F4B728" stroke="#2E3232" stroke-width="3" stroke-linejoin="round"/><circle cx="540" cy="240" r="120" fill="url(#glow)"/><polygon points="344,218 736,212 742,262 338,268" fill="#EBEBEB" stroke="#2E3232" stroke-width="4" stroke-linejoin="round"/><clipPath id="t10"><polygon points="340,248 740,242 742,262 338,268" /></clipPath><g clip-path="url(#t10)" opacity=".6"><path d="M302 268L328 242M312 268L338 242M322 268L348 242M332 268L358 242M342 268L368 242M352 268L378 242M362 268L388 242M372 268L398 242M382 268L408 242M392 268L418 242M402 268L428 242M412 268L438 242M422 268L448 242M432 268L458 242M442 268L468 242M452 268L478 242M462 268L488 242M472 268L498 242M482 268L508 242M492 268L518 242M502 268L528 242M512 268L538 242M522 268L548 242M532 268L558 242M542 268L568 242M552 268L578 242M562 268L588 242M572 268L598 242M582 268L608 242M592 268L618 242M602 268L628 242M612 268L638 242M622 268L648 242M632 268L658 242M642 268L668 242M652 268L678 242M662 268L688 242M672 268L698 242M682 268L708 242M692 268L718 242M702 268L728 242M712 268L738 242M722 268L748 242M732 268L758 242M742 268L768 242M752 268L778 242M762 268L788 242M772 268L798 242" stroke="#4D5252" stroke-width="2.2"/></g><path d="M362 228H716" stroke="#FFFFFF" stroke-width="3" opacity=".6"/><path d="M540 222l13 18l-13 18l-13 -18z" fill="#F4B728" stroke="#2E3232" stroke-width="3" stroke-linejoin="round"/><path d="M410 486Q540 520 670 486" fill="none" stroke="#A83861" stroke-width="6" stroke-dasharray="2 12" stroke-linecap="round"/><rect width="1080" height="560" fill="url(#vig)"/></g></svg>